<?xml version="1.0" encoding="UTF-8" standalone="no"?> <svg xmlns:dc="http://purl.org/dc/elements/1.1/" xmlns:cc="http://creativecommons.org/ns#" xmlns:rdf="http://www.w3.org/1999/02/22-rdf-syntax-ns#" xmlns:svg="http://www.w3.org/2000/svg" xmlns="http://www.w3.org/2000/svg" xmlns:sodipodi="http://sodipodi.sourceforge.net/DTD/sodipodi-0.dtd" xmlns:inkscape="http://www.inkscape.org/namespaces/inkscape" id="svg2" height="240.4057" width="800" sodipodi:docname="nettantra-logo-2019.svg" inkscape:version="0.92.2 5c3e80d, 2017-08-06"><defs id="defs4"></defs><metadata id="metadata7"></metadata><path inkscape:connector-curvature="0" id="path1415" style="font-style:normal;font-variant:normal;font-weight:normal;font-stretch:normal;font-size:24px;line-height:1.25;font-family:'Century Gothic';-inkscape-font-specification:'Century Gothic';text-align:center;letter-spacing:10px;word-spacing:0px;text-anchor:middle;fill:#006e8e;fill-opacity:1;stroke:none;stroke-width:1.38252044" d="m 703.33817,226.4707 2.08933,1.0978 q -1.02696,2.01854 -2.37267,3.258 -1.34566,1.23945 -3.02779,1.89458 -1.68212,0.63746 -3.80687,0.63746 -4.70992,0 -7.36592,-3.08092 -2.65596,-3.09867 -2.65596,-6.99408 0,-3.66521 2.24875,-6.53367 2.85071,-3.64754 7.63146,-3.64754 4.92242,0 7.86167,3.73608 2.08937,2.63825 2.12479,6.58679 h -17.31692 q 0.0709,3.36421 2.14246,5.52442 2.07167,2.1425 5.11717,2.1425 1.46962,0 2.85075,-0.5135 1.39883,-0.5135 2.37266,-1.36342 0.97388,-0.84991 2.10709,-2.7445 z m 0,-5.188 q -0.49579,-1.98312 -1.45196,-3.16941 -0.93842,-1.18634 -2.49658,-1.91234 -1.55817,-0.72595 -3.27571,-0.72595 -2.83304,0 -4.86929,1.82379 -1.48734,1.32796 -2.24871,3.98391 z m -36.07396,-3.68291 -1.96542,1.22175 q -2.54975,-3.38196 -6.95866,-3.38196 -3.52359,0 -5.86084,2.26646 -2.31954,2.26641 -2.31954,5.50671 0,2.10704 1.06238,3.9662 1.08012,1.85921 2.93929,2.88617 1.87687,1.027 4.19642,1.027 4.24958,0 6.94095,-3.38196 l 1.96542,1.29259 q -1.38112,2.07166 -3.71837,3.22258 -2.31955,1.13321 -5.29421,1.13321 -4.56829,0 -7.57838,-2.90388 -3.01012,-2.90383 -3.01012,-7.06487 0,-2.79763 1.39883,-5.188 1.4165,-2.40809 3.87771,-3.75375 2.46121,-1.34571 5.50671,-1.34571 1.91229,0 3.68296,0.58433 1.78833,0.58429 3.02779,1.52275 1.23946,0.93846 2.10708,2.39038 z M 611.359,213.59812 h 2.47892 v 3.45275 q 1.48733,-1.98312 3.29337,-2.95696 1.80609,-0.99158 3.93084,-0.99158 2.16021,0 3.82462,1.09779 1.68213,1.09783 2.47888,2.957 0.79679,1.85917 0.79679,5.79 v 9.91563 h -2.46117 v -9.18967 q 0,-3.32879 -0.28329,-4.44429 -0.44267,-1.91229 -1.66446,-2.86846 -1.22171,-0.97388 -3.18712,-0.97388 -2.24871,0 -4.03709,1.48738 -1.77062,1.48733 -2.33725,3.68292 -0.35412,1.43425 -0.35412,5.24112 v 7.06488 H 611.359 Z m -22.47537,12.87258 2.08933,1.0978 q -1.02696,2.01854 -2.37267,3.258 -1.34566,1.23945 -3.02779,1.89458 -1.68212,0.63746 -3.80687,0.63746 -4.70996,0 -7.36592,-3.08092 -2.65596,-3.09867 -2.65596,-6.99408 0,-3.66521 2.24871,-6.53367 2.85075,-3.64754 7.6315,-3.64754 4.92238,0 7.86167,3.73608 2.08937,2.63825 2.12479,6.58679 H 574.2935 q 0.0708,3.36421 2.14246,5.52442 2.07167,2.1425 5.11717,2.1425 1.46962,0 2.85075,-0.5135 1.39883,-0.5135 2.37266,-1.36342 0.97384,-0.84991 2.10709,-2.7445 z m 0,-5.188 q -0.49579,-1.98312 -1.45196,-3.16941 -0.93842,-1.18634 -2.49658,-1.91234 -1.55817,-0.72595 -3.27571,-0.72595 -2.83304,0 -4.86929,1.82379 -1.48734,1.32796 -2.24871,3.98391 z m -38.99554,-15.12129 h 2.47891 v 26.70134 h -2.47891 z m -22.40459,0 h 2.47892 v 26.70134 h -2.47892 z m -22.10354,20.30929 2.08938,1.0978 q -1.027,2.01854 -2.37271,3.258 -1.34567,1.23945 -3.02779,1.89458 -1.68209,0.63746 -3.80688,0.63746 -4.70991,0 -7.36587,-3.08092 -2.656,-3.09867 -2.656,-6.99408 0,-3.66521 2.24875,-6.53367 2.85071,-3.64754 7.63146,-3.64754 4.92241,0 7.86166,3.73608 2.08938,2.63825 2.12479,6.58679 h -17.31691 q 0.0708,3.36421 2.14246,5.52442 2.07166,2.1425 5.11716,2.1425 1.46967,0 2.85075,-0.5135 1.39884,-0.5135 2.37267,-1.36342 0.97383,-0.84991 2.10708,-2.7445 z m 0,-5.188 q -0.49579,-1.98312 -1.45191,-3.16941 -0.93846,-1.18634 -2.49663,-1.91234 -1.55817,-0.72595 -3.27571,-0.72595 -2.83304,0 -4.86925,1.82379 -1.48737,1.32796 -2.24875,3.98391 z m -36.07396,-3.68291 -1.96541,1.22175 q -2.54975,-3.38196 -6.95867,-3.38196 -3.52358,0 -5.86083,2.26646 -2.31954,2.26641 -2.31954,5.50671 0,2.10704 1.06241,3.9662 1.08009,1.85921 2.93925,2.88617 1.87688,1.027 4.19642,1.027 4.24958,0 6.94096,-3.38196 l 1.96541,1.29259 q -1.38112,2.07166 -3.71837,3.22258 -2.31954,1.13321 -5.29421,1.13321 -4.56829,0 -7.57837,-2.90388 -3.01009,-2.90383 -3.01009,-7.06487 0,-2.79763 1.3988,-5.188 1.4165,-2.40809 3.8777,-3.75375 2.46121,-1.34571 5.50671,-1.34571 1.91229,0 3.68296,0.58433 1.78833,0.58429 3.02779,1.52275 1.23946,0.93846 2.10708,2.39038 z m -53.42627,-4.00167 h 2.97465 l 5.09946,7.13571 5.09946,-7.13571 h 2.97471 l -6.58684,9.15425 7.41904,10.11038 h -3.01012 l -5.89625,-8.09184 -5.80771,8.09184 h -2.95694 l 7.29502,-10.11038 z m -31.96608,-6.78158 h 14.92655 v 2.56746 h -12.32369 v 8.14495 h 12.21744 v 2.54975 h -12.21744 v 10.21663 h 12.21744 v 2.56742 h -14.8203 z m -48.54521,6.78158 h 2.49662 v 15.3515 q 0,4.05479 -0.70826,5.93167 -0.97385,2.65596 -3.38193,4.09021 -2.40808,1.4342 -5.79003,1.4342 -2.47889,0 -4.46202,-0.70825 -1.96541,-0.69058 -3.20486,-1.87691 -1.23946,-1.16863 -2.28414,-3.43504 h 2.69139 q 1.09779,1.91229 2.83303,2.83304 1.73522,0.92075 4.30266,0.92075 2.53202,0 4.26726,-0.95617 1.75294,-0.93846 2.49662,-2.37267 0.74366,-1.4342 0.74366,-4.62137 v -0.99158 q -1.39881,1.77066 -3.41735,2.72679 -2.01852,0.93846 -4.28495,0.93846 -2.65598,0 -4.99322,-1.3103 -2.33727,-1.32795 -3.61213,-3.559 -1.27487,-2.231 -1.27487,-4.90466 0,-2.67367 1.328,-4.9755 1.32798,-2.31959 3.66523,-3.66525 2.35497,-1.34571 4.95781,-1.34571 2.16019,0 4.01937,0.90304 1.87689,0.88533 3.61211,2.93925 z m -7.31276,1.89458 q -2.10707,0 -3.91312,1.027 -1.80607,1.00925 -2.83304,2.8153 -1.02698,1.78837 -1.02698,3.87775 0,3.16941 2.12478,5.24108 2.12477,2.07167 5.5067,2.07167 3.41735,0 5.489,-2.05396 2.08936,-2.05396 2.08936,-5.40046 0,-2.17792 -0.95614,-3.87771 -0.95615,-1.71754 -2.70909,-2.70908 -1.75293,-0.99159 -3.77147,-0.99159 z m -46.48536,-1.89458 h 2.4789 v 3.45275 q 1.48734,-1.98312 3.29341,-2.95696 1.80606,-0.99158 3.93083,-0.99158 2.16019,0 3.8246,1.09779 1.68211,1.09783 2.47889,2.957 0.7968,1.85917 0.7968,5.79 v 9.91563 h -2.4612 v -9.18967 q 0,-3.32879 -0.2833,-4.44429 -0.44267,-1.91229 -1.6644,-2.86846 -1.22175,-0.97388 -3.18718,-0.97388 -2.24872,0 -4.03706,1.48738 -1.77066,1.48733 -2.33726,3.68292 -0.35413,1.43425 -0.35413,5.24112 v 7.06488 h -2.4789 z m -21.53695,-7.9325 q 0.84991,0 1.45193,0.60204 0.60201,0.602 0.60201,1.45192 0,0.83221 -0.60201,1.43421 -0.60202,0.60204 -1.45193,0.60204 -0.8322,0 -1.43422,-0.60204 -0.60203,-0.602 -0.60203,-1.43421 0,-0.84992 0.60203,-1.45192 0.60202,-0.60204 1.43422,-0.60204 z m -1.23945,7.9325 h 2.4966 v 19.26463 h -2.4966 z m -24.90118,-7.15341 h 2.4966 v 7.15341 h 3.93083 v 2.12479 h -3.93083 v 17.13984 h -2.4966 v -17.13984 h -3.38194 v -2.12479 h 3.38194 z m -20.74018,-0.2833 v 2.42579 q -1.36339,-0.58433 -2.33724,-0.58433 -0.72597,0 -1.20405,0.301 -0.47807,0.28333 -0.60201,0.67288 -0.1239,0.37183 -0.1239,2.01854 v 2.60283 h 4.01936 v 2.12479 h -4.03707 v 17.13984 h -2.47891 v -17.13984 h -2.53202 v -2.12479 h 2.53202 v -3.01008 q 0,-2.07167 0.37185,-2.957 0.38954,-0.88533 1.29256,-1.4165 0.92074,-0.54892 2.21331,-0.54892 1.20403,0 2.88614,0.49579 z m -28.63724,7.43671 v 19.26463 h -2.44349 v -3.31113 q -1.55817,1.89463 -3.50588,2.85075 -1.92999,0.95617 -4.23184,0.95617 -4.09019,0 -6.99405,-2.957 -2.88615,-2.97467 -2.88615,-7.22421 0,-4.16104 2.92156,-7.118 2.92156,-2.957 7.02946,-2.957 2.37268,0 4.28497,1.00929 1.92999,1.00925 3.38193,3.02779 v -3.54129 z m -9.91561,1.89458 q -2.07165,0 -3.8246,1.027 -1.75294,1.00925 -2.79762,2.85071 -1.02697,1.8415 -1.02697,3.89542 0,2.03625 1.04468,3.89546 1.04468,1.85916 2.79762,2.90383 1.77064,1.027 3.78918,1.027 2.03625,0 3.86001,-1.027 1.82376,-1.02696 2.79762,-2.77992 0.99156,-1.75291 0.99156,-3.94854 0,-3.3465 -2.21331,-5.59525 -2.1956,-2.24871 -5.41817,-2.24871 z m -36.23332,-1.89458 h 2.53202 v 2.81533 q 1.13321,-1.66441 2.39037,-2.47891 1.25716,-0.83221 2.62056,-0.83221 1.02698,0 2.1956,0.65517 l -1.29258,2.08933 q -0.77907,-0.33642 -1.31026,-0.33642 -1.23946,0 -2.39037,1.027 -1.15092,1.00925 -1.75295,3.15175 -0.46037,1.64667 -0.46037,6.65763 v 6.51596 h -2.53202 z m -18.96953,-1.94771 -2.05394,1.57588 q -1.69981,-2.21329 -4.09018,-3.34654 -2.37268,-1.15092 -5.22341,-1.15092 -3.11634,0 -5.77231,1.50508 -2.655972,1.48734 -4.125613,4.01934 -1.451917,2.51433 -1.451917,5.66608 0,4.76304 3.257988,7.95021 3.275692,3.18716 8.251202,3.18716 5.4713,0 9.15424,-4.28495 l 2.05394,1.55816 q -1.9477,2.47888 -4.86926,3.84229 -2.90387,1.34567 -6.49827,1.34567 -6.83469,0 -10.783236,-4.55054 -3.311112,-3.84229 -3.311112,-9.27817 0,-5.71921 4.001662,-9.61462 4.019356,-3.91313 10.057266,-3.91313 3.64753,0 6.5868,1.45192 2.93928,1.43425 4.81615,4.03708 z m 607.63118,-61.95745 q -1.79441,0 -3.28975,1.49533 -1.34579,1.34579 -1.34579,3.28971 0,6.87854 4.63554,6.87854 h 33.19625 v 23.77579 h -33.19625 q -11.66358,0 -20.03741,-8.37387 -8.3738,-8.37388 -8.3738,-20.03746 v -2.243 q 0,-11.81309 8.3738,-20.18696 8.37383,-8.37388 20.03741,-8.37388 H 754.243 q -1.94396,-5.83179 -3.58879,-8.07475 -2.84113,-3.58883 -7.62617,-3.58883 H 706.69158 V 90.47783 h 36.33646 q 10.46729,0 19.88784,7.47663 8.97195,7.02808 12.56075,17.19633 L 800,185.13233 h -25.1215 l -12.41121,-35.43937 z m -82.39266,35.43937 21.68225,-62.50487 q 3.14016,-8.67292 10.01871,-8.67292 h 14.95324 V 90.47783 h -14.95324 q -10.3178,0 -19.43925,7.17759 -8.972,7.02804 -12.56075,17.04679 l -24.52338,70.43012 z M 570.6168,104.53396 h 25.12149 v 23.77575 h -16.8972 l 8.52337,24.67295 q 3.14017,8.67296 10.01871,8.67296 h 14.95325 v 23.47671 h -14.95325 q -10.31779,0 -19.43925,-7.02808 -8.972,-7.17759 -12.56075,-17.19629 L 540.8598,90.47783 h 24.82241 z M 499.14013,88.08529 q 18.84112,0 32,14.20567 12.71029,13.75704 12.71029,32.89729 v 49.94408 H 520.3738 v -49.94408 q 0,-9.27109 -6.13088,-16.29913 -5.98129,-7.17758 -15.10279,-7.17758 -9.1215,0 -15.25233,7.17758 -5.9813,7.02804 -5.9813,16.29913 v 49.94408 h -23.47666 v -49.94408 q 0,-19.14025 12.85983,-33.04683 13.00933,-14.05613 31.85046,-14.05613 z m -125.15885,61.60767 q -1.79439,0 -3.28971,1.49533 -1.34581,1.34579 -1.34581,3.28971 0,6.87854 4.63552,6.87854 h 33.19626 v 23.77579 h -33.19626 q -11.66354,0 -20.03739,-8.37387 -8.37383,-8.37388 -8.37383,-20.03746 v -2.243 q 0,-11.81309 8.37383,-20.18696 8.37385,-8.37388 20.03739,-8.37388 h 27.21496 q -1.94393,-5.83179 -3.5888,-8.07475 -2.84111,-3.58883 -7.62616,-3.58883 H 353.64483 V 90.47783 h 36.33645 q 10.46729,0 19.88785,7.47663 8.97196,7.02808 12.56075,17.19633 l 24.52338,69.98154 h -25.1215 L 409.42053,149.69296 Z M 272.14952,90.47783 h 65.94392 v 23.47671 H 316.8598 v 71.17779 h -23.47664 v -71.17779 h -21.23364 z m -49.04674,14.05613 h 25.1215 v 23.77575 h -16.8972 l 8.52337,24.67295 q 3.14018,8.67296 10.01868,8.67296 h 14.95327 v 23.47671 h -14.95327 q -10.31775,0 -19.43925,-7.02808 -8.97195,-7.17759 -12.56074,-17.19629 L 193.34577,90.47783 H 218.1682 Z M 96.897178,137.58075 q 0,-19.43929 13.457952,-33.49542 13.60746,-14.05612 32.89719,-14.05612 h 20.33645 q 11.36448,0 19.43925,8.07479 8.07476,8.07479 8.07476,19.43933 v 4.33646 q 0,11.3645 -8.07476,19.58883 -8.07477,8.07479 -19.43925,8.07479 H 132.1869 v -23.77575 h 31.40187 q 3.88785,0 3.88785,-3.88787 0,-4.33646 -0.29908,-5.23367 -0.59812,-2.99066 -3.58877,-2.99066 h -20.33645 q -9.57009,0 -16.14953,7.17758 -6.42991,7.02808 -6.42991,16.74771 0,9.57012 6.42991,16.74775 6.57944,7.02804 16.14953,7.02804 h 44.71028 v 23.77579 h -44.71028 q -19.28973,0 -32.89719,-14.05612 Q 96.897178,157.02008 96.897178,137.58075 Z M 44.710274,88.08529 q 18.841125,0 32.000008,14.20567 12.710271,13.75704 12.710271,32.89729 v 49.94408 H 65.943928 v -49.94408 q 0,-9.27109 -6.130841,-16.29913 -5.981321,-7.17758 -15.102813,-7.17758 -9.121491,0 -15.252333,7.17758 -5.9813,7.02804 -5.9813,16.29913 v 49.94408 H 0 V 135.18825 Q 0,116.048 12.859808,102.14142 25.86915,88.08529 44.710274,88.08529 Z m 228.711196,-11.323 c 0,0 51.53398,0.36325 82.23412,0.38938 3.62253,-9.276 14.67404,-20.38088 14.67404,-20.38088 L 319.42117,35.8405 c -33.85723,13.99062 -45.9997,40.92179 -45.9997,40.92179 z m 46.78868,-45.43208 c 0,0 75.09464,31.12129 75.19226,30.93966 6.72627,-10.60762 10.97886,-12.35929 10.97886,-12.35929 L 372.8839,13.89412 c -30.34141,0.41209 -52.67375,17.43609 -52.67375,17.43609 z m 51.0322,-25.93784 c 0,0 38.88632,41.39175 49.41903,51.9733 8.554,-5.75675 17.04554,-6.25288 17.04554,-6.25288 L 415.00677,7.82287 C 389.72624,3.0515 371.24235,5.39237 371.24235,5.39237 Z M 415.39731,0 448.29184,59.91996 c 0,0 45.01091,-10.63375 68.13225,28.96096 C 491.52838,5.00754 415.39731,0 415.39731,0 Z"></path></svg> 